#!OML:ASF E:/inclinewalkrobotboard/Project1/Captureday1/Session1/subject1.ASF
:FULLY-SPECIFIED
:DEGREES
51
root 0 0 0 -1.2473881209755446 -1.0873097931578264 -3.950522288932621
lowerback 20.479530456925374 2.640257956103139 -0.6648082824861787
upperback 2.4010493821193855 3.546908021249685 -0.012653549344077808
thorax -8.854096884166523 1.729220960828442 -0.25446889618277346
lowerneck -7.378072399669246 -5.985550451054619 -0.9400140297223867
upperneck 1.6589057239243363 -8.536869427147916 5.000258611773778
head 2.1693527062280937 -3.9326557274179343 1.1687165077200372
rclavicle 1.6909788003409513E-15 -7.131875869663162E-16
rhumerus 29.63243324582652 -11.30961897296515 -34.819678700880445
rradius 136.3020705365932
rwrist -15.896469692913659
rhand -19.54213471108229 -29.803927134886813
rfingers 7.125019999999967
rthumb 6.8037098848920685 -59.640425780175846
lclavicle -5.732655708569679E-16 -7.719803275613616E-17
lhumerus -47.032205607359955 -6.322219266590072 79.98610239940189
lradius 61.95066595715078
lwrist 10.934482341326149
lhand -14.639111710164647 -19.624112911997052
lfingers 7.125019999999862
lthumb 11.432388717988943 10.146110525925966
rfemur -23.77393996136251 3.713064885316846 30.49879465427771
rtibia 58.678911231699786
rfoot -7.022868231507367 -6.317995941806967
rtoes 10.83952693070713
lfemur -12.917868186828628 0.7019718130903372 -18.115660387952197
ltibia 54.01290006540094
lfoot 4.630650173465433 -12.115115251639498
ltoes -0.023131137988912087
52
root 0 0 0 -1.2158860495594668 -1.0514580533933409 -3.965608636169012
lowerback 20.470152921818567 2.6291283800956116 -0.687024930108598
upperback 2.351997210502829 3.533159553486115 -0.003985516682086132
thorax -8.901570403011346 1.7221937291185863 -0.23244659366489265
lowerneck -7.342793557429115 -5.985388889732802 -0.906179640928688
upperneck 1.60714679520194 -8.536388126335698 4.975479117514772
head 2.1530568166538044 -3.9332417659133494 1.1565245140672653
rclavicle 1.2100415652666442E-15 -5.596312003880752E-16
rhumerus 30.503122728890773 -11.134592999704598 -33.67667461948726
rradius 137.75877978987472
rwrist -17.688199276492405
rhand -19.40384992568221 -30.393316382077252
rfingers 7.125019999999967
rthumb 6.935687006411374 -60.21753468285493
lclavicle -8.443772338324228E-16 6.841538214319868E-17
lhumerus -46.92619038787463 -6.4568466593641505 80.21691419728789
lradius 61.9986875867079
lwrist 10.880606836741359
lhand -14.545121341277516 -19.823856119688962
lfingers 7.125019999999865
lthumb 11.524737786269393 9.912199209695142
rfemur -23.431660042630675 3.7315483647034426 30.57237449965198
rtibia 58.051089238673335
rfoot -7.315676436257249 -6.027689285687174
rtoes 11.59792062698584
lfemur -14.071237149943492 1.5816520100528435 -16.540670232786542
ltibia 59.2704929583016
lfoot 3.479652836648871 -11.636734411209428
ltoes -4.179383394610248
53
root 0 0 0 -1.213916499643488 -1.0497469200617966 -3.986307661380184
lowerback 20.41429762198237 2.67817063734834 -0.6062959969444721
upperback 2.2336863320990186 3.6021943712796984 -0.07620540819333088
thorax -9.000228200173416 1.752460248672556 -0.36397400377095046
lowerneck -7.512766704240734 -5.9906257379454875 -0.9390120478274029
upperneck 1.140220039212025 -8.564293422177965 5.069770986631552
head 2.022860586771854 -3.9418686958127713 1.1941084725452185
rclavicle 3.939307060809533E-16 -2.7258400372592007E-16
rhumerus 32.30631749212436 -10.24454541158174 -31.7792608787544
rradius 140.9192185222781
rwrist -20.464353459682467
rhand -19.265271951491503 -31.149485773326806
rfingers 7.125019999999966
rthumb 7.0681697860239945 -60.958321481069554
lclavicle -1.2742975165954513E-15 3.2557331869253245E-16
lhumerus -46.81033741400057 -6.600723527554376 80.4571840204282
lradius 62.066236171628404
lwrist 10.817653223193266
lhand -14.442793959600301 -20.088878255033023
lfingers 7.1250199999998705
lthumb 11.626140035480674 9.610597006740276
rfemur -22.253469300609332 4.284501536966971 31.039431294312717
rtibia 53.93120923926485
rfoot -9.022822369318952 -6.135911830243573
rtoes 11.952285584290276
lfemur -16.681091492717158 2.550474581113018 -15.047398795808988
ltibia 63.30177842871802
lfoot 1.6533692472445018 -10.467841987882462
ltoes -6.581260127561528
54
root 0 0 0 -1.27524526146634 -1.1335111980525514 -4.011570362656565
lowerback 20.209557946720203 2.8454577416526803 -0.29860138904068556
upperback 2.066031698685713 3.8347568062364514 -0.304387273775951
thorax -9.072620580339729 1.8558641326276222 -0.8052920024224243
lowerneck -8.054441301077809 -6.000008632131703 -1.1383596540292764
upperneck -0.04965907186308982 -8.634431336349007 5.42081522085815
head 1.6818878860519808 -3.9608673058583648 1.3421814800598169
rclavicle -6.843195753921907E-16 2.4783973737254295E-16
rhumerus 34.76416625778291 -7.897189031138961 -29.548804866016567
rradius 145.818115971743
rwrist -23.86770695400578
rhand -19.106885561331772 -31.806815641991886
rfingers 7.125019999999962
rthumb 7.219919240621594 -61.60081777232027
lclavicle -2.0553159180053005E-15 7.350129966722415E-16
lhumerus -46.75094289716938 -6.721537408765949 80.63255987131392
lradius 62.163529833968624
lwrist 10.762888000334447
lhand -14.345676641335361 -20.377855390716697
lfingers 7.125019999999876
lthumb 11.724255654480334 9.282703473275735
rfemur -17.226546946333517 6.282475478536695 32.68619123483829
rtibia 41.39180602863384
rfoot -14.172595449141458 -7.06972042241097
rtoes 11.056546862849622
lfemur -20.27940464528311 3.3839067444267195 -13.8973429572603
ltibia 65.23669880853356
lfoot -0.564124450620838 -8.718222734411416
ltoes -6.937987197704089
55
root 0 0 0 -1.3394440023441097 -1.2245988306486373 -4.01291546937799
lowerback 19.99730481661932 2.9429332045289316 -0.08653681332086771
upperback 2.09020691572973 3.9703718628724296 -0.42918369971002046
thorax -8.932368577256709 1.9167040249328124 -1.0679572717992036
lowerneck -8.359204424129887 -6.001589450322469 -1.316172718216668
upperneck -0.6014877381747503 -8.66131864093326 5.660967234161372
head 1.5063293723979916 -3.9673230471109378 1.448690130591241
rclavicle -8.490158305854738E-16 3.9935674527280224E-16
rhumerus 35.73027324957322 -6.256552964313842 -28.972958601316066
rradius 147.9744697015089
rwrist -24.802061474571204
rhand -19.057415432807023 -31.737948770786364
rfingers 7.1250199999999575
rthumb 7.26820222543139 -61.52830645183164
lclavicle -2.219553754262947E-15 8.280393802785636E-16
lhumerus -46.88979541748786 -6.647289860141299 80.49900867951489
lradius 62.17051576727255
lwrist 10.769794134622707
lhand -14.359305203866363 -20.337046462463846
lfingers 7.125019999999875
lthumb 11.71406851824652 9.322152494472908
rfemur -11.620198888879631 7.8658848821393 34.20905868319462
rtibia 33.31094838298412
rfoot -17.508139133451664 -7.776391715318245
rtoes 9.389934014347268
lfemur -21.65616664318159 3.4903755992605814 -13.741659990080498
ltibia 64.61956834799756
lfoot -1.40533166065946 -7.894712567831124
ltoes -6.228141447827333
56
root 0 0 0 -1.398711711176574 -1.317820344269278 -4.0095967997970625
lowerback 19.80776638257519 2.999098869649722 0.0502408715227155
upperback 2.158686177915848 4.048885811216251 -0.49090683859514406
thorax -8.756377135112245 1.9525358106108026 -1.21449405229188
lowerneck -8.520504032262892 -5.995725717766387 -1.4427911551683459
upperneck -0.8087351803046445 -8.662286084317454 5.8123135491130595
head 1.4293692296185938 -3.9651302591475757 1.5179269686542654
rclavicle -8.772604938243195E-16 4.1398817293188733E-16
rhumerus 36.26568116574334 -4.986057497868498 -28.86288427516483
rradius 149.30260153481532
rwrist -25.00093049726349
rhand -19.076860862947257 -31.474635577961507
rfingers 7.125019999999955
rthumb 7.25022313183362 -61.26769117038686
lclavicle -2.119432600501325E-15 7.855025245223534E-16
lhumerus -47.10005882333136 -6.48933319938217 80.24819246215574
lradius 62.13113984517654
lwrist 10.79379507184621
lhand -14.416902016847699 -20.173151563064366
lfingers 7.125019999999872
lthumb 11.660174888059466 9.502188754626829
rfemur -6.427429290387018 8.69239803365566 35.19277879899039
rtibia 28.907897502367454
rfoot -19.755691584194615 -8.015127315755818
rtoes 7.901893409533645
lfemur -22.740292202823387 3.3838001348037223 -13.816538029435128
ltibia 62.9654951273164
lfoot -1.9537693011434065 -7.18609110371414
ltoes -4.953539465243388
